<svg viewBox="0 0 7 7" fill="none" xmlns="http://www.w3.org/2000/svg">
<circle cx="3.5" cy="3.5" r="3.5" fill="#A5A5A5"/>
<g clip-path="url(#clip0)">
<path d="M3.55122 2.18044C3.56265 2.10433 3.61497 2.02344 3.68945 2.02344C3.76484 2.02344 3.82617 2.08477 3.82617 2.16016H4.09961C4.09961 1.934 3.91561 1.75 3.68945 1.75C3.45957 1.75 3.30987 1.94613 3.28077 2.14015L3.19285 2.73438H2.77344V3.00781H3.15239L2.88429 4.81983L2.8835 4.82624C2.87623 4.89884 2.81929 4.97656 2.74609 4.97656C2.67071 4.97656 2.60938 4.91523 2.60938 4.83984H2.33594C2.33594 5.066 2.51993 5.25 2.74609 5.25C2.9762 5.25 3.13418 5.05079 3.15521 4.85696L3.42881 3.00781H3.83984V2.73438H3.46926L3.55122 2.18044Z" fill="white"/>
<path d="M4.66381 3.44531H4.33544L4.1578 3.7125L4.03936 3.44531H3.74026L3.97834 3.98241L3.59912 4.55273H3.92749L4.10968 4.27872L4.23115 4.55273H4.53024L4.28913 4.00881L4.66381 3.44531Z" fill="white"/>
</g>
<defs>
<clipPath id="clip0">
<rect width="3.5" height="3.5" fill="white" transform="translate(1.75 1.75)"/>
</clipPath>
</defs>
</svg>
