<svg viewBox="0 0 10 10" fill="none" xmlns="http://www.w3.org/2000/svg">
<path d="M8.53555 1.46703C7.59115 0.522652 6.33555 0.00259399 5 0.00259399C4.19496 0.00259399 3.39475 0.198551 2.68584 0.569313C2.27707 0.783082 1.89826 1.05525 1.5625 1.37308V0.00259399H0.78125V2.73697H3.51562V1.95572H2.08324C2.86229 1.21207 3.90768 0.783844 5 0.783844C7.32621 0.783844 9.21875 2.67634 9.21875 5.00257C9.21873 5.1321 9.21281 5.26267 9.20115 5.39066L9.9792 5.46152C9.99299 5.31009 9.99998 5.1557 10 5.00263L9.60938 5.00259H10C10 3.66703 9.4799 2.41144 8.53555 1.46703Z" fill="#828282"/>
<path d="M1.71328 7.6478L1.10498 8.13805C1.2817 8.35731 1.4783 8.56309 1.68936 8.74967L2.20682 8.16438C2.02857 8.00678 1.86252 7.83301 1.71328 7.6478Z" fill="#828282"/>
<path d="M1.02006 6.40515L0.283203 6.66484C0.376836 6.93048 0.494062 7.19015 0.63168 7.43666L1.31383 7.05585C1.19779 6.848 1.09896 6.62906 1.02006 6.40515Z" fill="#828282"/>
<path d="M0.78125 5.00259H0C0 5.28521 0.0238281 5.56873 0.0707813 5.84527L0.841016 5.71445C0.801348 5.48099 0.78125 5.2415 0.78125 5.00259Z" fill="#828282"/>
<path d="M2.77992 8.59064L2.36816 9.25456C2.60783 9.40321 2.86162 9.5322 3.12242 9.63794L3.41596 8.91394C3.19607 8.82482 2.98207 8.71601 2.77992 8.59064Z" fill="#828282"/>
<path d="M9.07656 6.09335C9.01529 6.32281 8.93385 6.54865 8.83447 6.76455L9.54414 7.09124C9.66205 6.83509 9.75869 6.56712 9.83137 6.29482L9.07656 6.09335Z" fill="#828282"/>
<path d="M7.49146 8.40756C7.29941 8.54834 7.0943 8.6735 6.88184 8.77957L7.2308 9.47856C7.48268 9.35282 7.72576 9.20448 7.95334 9.03766L7.49146 8.40756Z" fill="#828282"/>
<path d="M8.48197 7.38522C8.34754 7.58122 8.19541 7.76725 8.02979 7.93817L8.59082 8.48186C8.78693 8.2795 8.96709 8.05917 9.12627 7.82704L8.48197 7.38522Z" fill="#828282"/>
<path d="M6.21838 9.04288C5.99119 9.1113 5.75623 9.16065 5.52002 9.18965L5.6152 9.96509C5.89533 9.93069 6.17402 9.87212 6.44355 9.79098L6.21838 9.04288Z" fill="#828282"/>
<path d="M4.09744 9.12469L3.93115 9.88804C4.20564 9.94784 4.48789 9.98464 4.77008 9.99741L4.80541 9.21696C4.56717 9.20618 4.32896 9.17511 4.09744 9.12469Z" fill="#828282"/>
</svg>
