<svg  viewBox="0 0 13 12" fill="none" xmlns="http://www.w3.org/2000/svg">
<path d="M6.12624 7.26393L6.1219 7.26384H6.43532C6.72752 7.26384 6.96485 7.02652 6.96485 6.73431V3.1335C6.96485 2.84129 6.72753 2.60397 6.43532 2.60397H5.79988C5.50767 2.60397 5.27035 2.84129 5.27035 3.1335V6.73431C5.27035 7.02652 5.50767 7.26384 5.79988 7.26384H6.1133L6.10895 7.26393C5.83184 7.26958 5.56798 7.38364 5.374 7.58162C5.18002 7.7796 5.07138 8.04572 5.07138 8.3229C5.07138 8.60007 5.18002 8.8662 5.374 9.06418C5.56798 9.26216 5.83184 9.37621 6.10895 9.38187L6.1176 9.38205L6.12624 9.38187C6.40336 9.37621 6.66721 9.26216 6.86119 9.06418C7.05517 8.8662 7.16382 8.60007 7.16382 8.3229C7.16382 8.04573 7.05517 7.7796 6.86119 7.58162C6.66721 7.38364 6.40336 7.26958 6.12624 7.26393ZM0.610483 5.99296C0.610483 2.95178 3.07641 0.48585 6.1176 0.48585C9.15878 0.48585 11.6247 2.95178 11.6247 5.99296C11.6247 9.03415 9.15878 11.5001 6.1176 11.5001C3.07641 11.5001 0.610483 9.03415 0.610483 5.99296Z" fill="#BDBDBD" stroke="#AAAAAA" stroke-width="0.847248"/>
</svg>
